<svg width="420" height="574" viewBox="0 0 420 574" fill="none" xmlns="http://www.w3.org/2000/svg">
<rect y="85" width="420" height="489" rx="60" fill="white"/>
<ellipse cx="209.502" cy="136.5" rx="135.853" ry="136.5" fill="#FBEFDF"/>
<path d="M112.769 362.92V376.28H117.349V378H110.889V362.92H112.769ZM123.545 368.36C124.958 368.36 126.145 368.84 127.105 369.8C128.065 370.747 128.545 371.927 128.545 373.34C128.545 374.753 128.065 375.94 127.105 376.9C126.145 377.847 124.958 378.32 123.545 378.32C122.131 378.32 120.945 377.847 119.985 376.9C119.025 375.94 118.545 374.753 118.545 373.34C118.545 371.927 119.025 370.747 119.985 369.8C120.945 368.84 122.131 368.36 123.545 368.36ZM123.545 370.08C122.651 370.08 121.891 370.4 121.265 371.04C120.651 371.68 120.345 372.447 120.345 373.34C120.345 374.233 120.658 375 121.285 375.64C121.911 376.28 122.665 376.6 123.545 376.6C124.425 376.6 125.178 376.28 125.805 375.64C126.431 375 126.745 374.233 126.745 373.34C126.745 372.447 126.431 371.68 125.805 371.04C125.191 370.4 124.438 370.08 123.545 370.08ZM133.105 368.64V370.16H133.165C133.645 368.96 134.499 368.36 135.725 368.36C136.232 368.36 136.725 368.513 137.205 368.82L136.385 370.46C136.092 370.207 135.725 370.08 135.285 370.08C133.832 370.08 133.105 371.187 133.105 373.4V378H131.305V368.64H133.105ZM147.417 373.62H140.277C140.29 374.46 140.557 375.187 141.077 375.8C141.597 376.413 142.27 376.72 143.097 376.72C144.23 376.72 145.164 376.113 145.897 374.9L147.417 375.76C146.977 376.56 146.37 377.187 145.597 377.64C144.837 378.093 143.997 378.32 143.077 378.32C141.677 378.32 140.55 377.847 139.697 376.9C138.884 375.993 138.477 374.827 138.477 373.4C138.477 371.893 138.857 370.693 139.617 369.8C140.417 368.84 141.557 368.36 143.037 368.36C144.464 368.36 145.57 368.84 146.357 369.8C147.064 370.693 147.417 371.873 147.417 373.34V373.62ZM140.377 372.26H145.617C145.51 371.54 145.23 370.973 144.777 370.56C144.337 370.133 143.757 369.92 143.037 369.92C142.344 369.92 141.75 370.14 141.257 370.58C140.777 371.007 140.484 371.567 140.377 372.26ZM151.703 368.64V369.82H151.743C152.356 368.847 153.183 368.36 154.223 368.36C155.383 368.36 156.283 368.913 156.923 370.02C157.563 368.913 158.523 368.36 159.803 368.36C161.869 368.36 162.903 369.707 162.903 372.4V378H161.103V372.7C161.103 370.873 160.523 369.96 159.363 369.96C158.523 369.96 157.943 370.353 157.623 371.14C157.409 371.673 157.303 372.427 157.303 373.4V378H155.503V373.04C155.503 372.16 155.423 371.493 155.263 371.04C155.009 370.32 154.516 369.96 153.783 369.96C152.396 369.96 151.703 371.107 151.703 373.4V378H149.903V368.64H151.703ZM175.276 368.64V378H173.476V368.64H175.276ZM174.376 363.1C174.723 363.1 175.016 363.227 175.256 363.48C175.496 363.72 175.616 364.013 175.616 364.36C175.616 364.707 175.496 365 175.256 365.24C175.016 365.467 174.723 365.58 174.376 365.58C174.029 365.58 173.736 365.467 173.496 365.24C173.256 365 173.136 364.707 173.136 364.36C173.136 364.013 173.256 363.72 173.496 363.48C173.736 363.227 174.029 363.1 174.376 363.1ZM183.674 376.72C184.621 376.72 185.374 376.387 185.934 375.72C186.454 375.08 186.714 374.28 186.714 373.32C186.714 372.36 186.447 371.573 185.914 370.96C185.354 370.293 184.607 369.96 183.674 369.96C182.767 369.96 182.047 370.293 181.514 370.96C180.981 371.613 180.714 372.4 180.714 373.32C180.714 374.267 180.967 375.053 181.474 375.68C182.021 376.373 182.754 376.72 183.674 376.72ZM180.814 368.64V370.2H180.854C181.667 368.973 182.754 368.36 184.114 368.36C185.434 368.36 186.514 368.853 187.354 369.84C188.127 370.773 188.514 371.913 188.514 373.26C188.514 374.687 188.127 375.867 187.354 376.8C186.527 377.813 185.421 378.32 184.034 378.32C182.714 378.32 181.654 377.727 180.854 376.54H180.814V383.36H179.014V368.64H180.814ZM196.487 370L195.027 370.78C194.761 370.233 194.361 369.96 193.827 369.96C193.574 369.96 193.347 370.053 193.147 370.24C192.947 370.413 192.847 370.627 192.847 370.88C192.847 371.32 193.221 371.72 193.967 372.08C195.234 372.693 195.934 373.047 196.067 373.14C196.814 373.673 197.187 374.367 197.187 375.22C197.187 376.1 196.874 376.84 196.247 377.44C195.621 378.027 194.861 378.32 193.967 378.32C193.274 378.32 192.621 378.133 192.007 377.76C191.394 377.373 190.967 376.86 190.727 376.22L192.267 375.52C192.707 376.32 193.274 376.72 193.967 376.72C194.354 376.72 194.687 376.6 194.967 376.36C195.247 376.107 195.387 375.787 195.387 375.4C195.387 375.013 195.167 374.673 194.727 374.38L192.967 373.44C192.341 373.107 191.907 372.807 191.667 372.54C191.334 372.167 191.167 371.68 191.167 371.08C191.167 370.32 191.434 369.68 191.967 369.16C192.514 368.627 193.167 368.36 193.927 368.36C195.101 368.36 195.954 368.907 196.487 370ZM199.863 368.64H201.663V373.82C201.663 375.7 202.383 376.64 203.823 376.64C205.263 376.64 205.983 375.7 205.983 373.82V368.64H207.783V374.02C207.783 375.367 207.463 376.407 206.823 377.14C206.143 377.927 205.143 378.32 203.823 378.32C202.503 378.32 201.503 377.927 200.823 377.14C200.183 376.407 199.863 375.367 199.863 374.02V368.64ZM212.918 368.64V369.82H212.958C213.571 368.847 214.398 368.36 215.438 368.36C216.598 368.36 217.498 368.913 218.138 370.02C218.778 368.913 219.738 368.36 221.018 368.36C223.084 368.36 224.118 369.707 224.118 372.4V378H222.318V372.7C222.318 370.873 221.738 369.96 220.578 369.96C219.738 369.96 219.158 370.353 218.838 371.14C218.624 371.673 218.518 372.427 218.518 373.4V378H216.718V373.04C216.718 372.16 216.638 371.493 216.478 371.04C216.224 370.32 215.731 369.96 214.998 369.96C213.611 369.96 212.918 371.107 212.918 373.4V378H211.118V368.64H212.918ZM238.331 376.72C239.277 376.72 240.031 376.387 240.591 375.72C241.111 375.08 241.371 374.28 241.371 373.32C241.371 372.36 241.104 371.573 240.571 370.96C240.011 370.293 239.264 369.96 238.331 369.96C237.424 369.96 236.704 370.293 236.171 370.96C235.637 371.613 235.371 372.4 235.371 373.32C235.371 374.267 235.624 375.053 236.131 375.68C236.677 376.373 237.411 376.72 238.331 376.72ZM241.271 378V376.54H241.231C240.431 377.727 239.371 378.32 238.051 378.32C236.664 378.32 235.557 377.813 234.731 376.8C233.957 375.867 233.571 374.687 233.571 373.26C233.571 371.913 233.957 370.773 234.731 369.84C235.571 368.853 236.651 368.36 237.971 368.36C239.331 368.36 240.417 368.973 241.231 370.2H241.271V360.64H243.071V378H241.271ZM250.564 368.36C251.977 368.36 253.164 368.84 254.124 369.8C255.084 370.747 255.564 371.927 255.564 373.34C255.564 374.753 255.084 375.94 254.124 376.9C253.164 377.847 251.977 378.32 250.564 378.32C249.151 378.32 247.964 377.847 247.004 376.9C246.044 375.94 245.564 374.753 245.564 373.34C245.564 371.927 246.044 370.747 247.004 369.8C247.964 368.84 249.151 368.36 250.564 368.36ZM250.564 370.08C249.671 370.08 248.911 370.4 248.284 371.04C247.671 371.68 247.364 372.447 247.364 373.34C247.364 374.233 247.677 375 248.304 375.64C248.931 376.28 249.684 376.6 250.564 376.6C251.444 376.6 252.197 376.28 252.824 375.64C253.451 375 253.764 374.233 253.764 373.34C253.764 372.447 253.451 371.68 252.824 371.04C252.211 370.4 251.457 370.08 250.564 370.08ZM260.085 360.64V378H258.285V360.64H260.085ZM267.798 368.36C269.212 368.36 270.398 368.84 271.358 369.8C272.318 370.747 272.798 371.927 272.798 373.34C272.798 374.753 272.318 375.94 271.358 376.9C270.398 377.847 269.212 378.32 267.798 378.32C266.385 378.32 265.198 377.847 264.238 376.9C263.278 375.94 262.798 374.753 262.798 373.34C262.798 371.927 263.278 370.747 264.238 369.8C265.198 368.84 266.385 368.36 267.798 368.36ZM267.798 370.08C266.905 370.08 266.145 370.4 265.518 371.04C264.905 371.68 264.598 372.447 264.598 373.34C264.598 374.233 264.912 375 265.538 375.64C266.165 376.28 266.918 376.6 267.798 376.6C268.678 376.6 269.432 376.28 270.058 375.64C270.685 375 270.998 374.233 270.998 373.34C270.998 372.447 270.685 371.68 270.058 371.04C269.445 370.4 268.692 370.08 267.798 370.08ZM277.359 368.64V370.16H277.419C277.899 368.96 278.753 368.36 279.979 368.36C280.486 368.36 280.979 368.513 281.459 368.82L280.639 370.46C280.346 370.207 279.979 370.08 279.539 370.08C278.086 370.08 277.359 371.187 277.359 373.4V378H275.559V368.64H277.359ZM295.452 370L293.992 370.78C293.726 370.233 293.326 369.96 292.792 369.96C292.539 369.96 292.312 370.053 292.112 370.24C291.912 370.413 291.812 370.627 291.812 370.88C291.812 371.32 292.186 371.72 292.932 372.08C294.199 372.693 294.899 373.047 295.032 373.14C295.779 373.673 296.152 374.367 296.152 375.22C296.152 376.1 295.839 376.84 295.212 377.44C294.586 378.027 293.826 378.32 292.932 378.32C292.239 378.32 291.586 378.133 290.972 377.76C290.359 377.373 289.932 376.86 289.692 376.22L291.232 375.52C291.672 376.32 292.239 376.72 292.932 376.72C293.319 376.72 293.652 376.6 293.932 376.36C294.212 376.107 294.352 375.787 294.352 375.4C294.352 375.013 294.132 374.673 293.692 374.38L291.932 373.44C291.306 373.107 290.872 372.807 290.632 372.54C290.299 372.167 290.132 371.68 290.132 371.08C290.132 370.32 290.399 369.68 290.932 369.16C291.479 368.627 292.132 368.36 292.892 368.36C294.066 368.36 294.919 368.907 295.452 370ZM301.108 368.64V378H299.308V368.64H301.108ZM300.208 363.1C300.555 363.1 300.848 363.227 301.088 363.48C301.328 363.72 301.448 364.013 301.448 364.36C301.448 364.707 301.328 365 301.088 365.24C300.848 365.467 300.555 365.58 300.208 365.58C299.861 365.58 299.568 365.467 299.328 365.24C299.088 365 298.968 364.707 298.968 364.36C298.968 364.013 299.088 363.72 299.328 363.48C299.568 363.227 299.861 363.1 300.208 363.1ZM307.046 370.32V378H305.246V370.32H304.266V368.64H305.246V365.06H307.046V368.64H308.806V370.32H307.046ZM136.887 404.72C137.834 404.72 138.587 404.387 139.147 403.72C139.667 403.08 139.927 402.28 139.927 401.32C139.927 400.36 139.661 399.573 139.127 398.96C138.567 398.293 137.821 397.96 136.887 397.96C135.981 397.96 135.261 398.293 134.727 398.96C134.194 399.613 133.927 400.4 133.927 401.32C133.927 402.267 134.181 403.053 134.687 403.68C135.234 404.373 135.967 404.72 136.887 404.72ZM141.627 396.64V406H139.827V404.54H139.787C138.987 405.727 137.927 406.32 136.607 406.32C135.221 406.32 134.114 405.813 133.287 404.8C132.514 403.867 132.127 402.687 132.127 401.26C132.127 399.913 132.521 398.773 133.307 397.84C134.147 396.853 135.227 396.36 136.547 396.36C137.894 396.36 138.974 396.973 139.787 398.2H139.827V396.64H141.627ZM146.701 396.64V397.82H146.741C147.354 396.847 148.181 396.36 149.221 396.36C150.381 396.36 151.281 396.913 151.921 398.02C152.561 396.913 153.521 396.36 154.801 396.36C156.867 396.36 157.901 397.707 157.901 400.4V406H156.101V400.7C156.101 398.873 155.521 397.96 154.361 397.96C153.521 397.96 152.941 398.353 152.621 399.14C152.407 399.673 152.301 400.427 152.301 401.4V406H150.501V401.04C150.501 400.16 150.421 399.493 150.261 399.04C150.007 398.32 149.514 397.96 148.781 397.96C147.394 397.96 146.701 399.107 146.701 401.4V406H144.901V396.64H146.701ZM169.513 401.62H162.373C162.386 402.46 162.653 403.187 163.173 403.8C163.693 404.413 164.366 404.72 165.193 404.72C166.326 404.72 167.259 404.113 167.993 402.9L169.513 403.76C169.073 404.56 168.466 405.187 167.693 405.64C166.933 406.093 166.093 406.32 165.173 406.32C163.773 406.32 162.646 405.847 161.793 404.9C160.979 403.993 160.573 402.827 160.573 401.4C160.573 399.893 160.953 398.693 161.713 397.8C162.513 396.84 163.653 396.36 165.133 396.36C166.559 396.36 167.666 396.84 168.453 397.8C169.159 398.693 169.513 399.873 169.513 401.34V401.62ZM162.473 400.26H167.713C167.606 399.54 167.326 398.973 166.873 398.56C166.433 398.133 165.853 397.92 165.133 397.92C164.439 397.92 163.846 398.14 163.353 398.58C162.873 399.007 162.579 399.567 162.473 400.26ZM174.118 398.32V406H172.318V398.32H171.338V396.64H172.318V393.06H174.118V396.64H175.878V398.32H174.118ZM191.524 396.98V399.3C190.791 398.46 189.898 398.04 188.844 398.04C187.964 398.04 187.224 398.367 186.624 399.02C186.024 399.673 185.724 400.44 185.724 401.32C185.724 402.28 186.024 403.073 186.624 403.7C187.224 404.327 188.004 404.64 188.964 404.64C189.938 404.64 190.791 404.227 191.524 403.4V405.7C190.751 406.113 189.891 406.32 188.944 406.32C187.544 406.32 186.358 405.847 185.384 404.9C184.411 403.953 183.924 402.787 183.924 401.4C183.924 399.947 184.411 398.747 185.384 397.8C186.371 396.84 187.591 396.36 189.044 396.36C189.991 396.36 190.818 396.567 191.524 396.98ZM198.632 396.36C200.046 396.36 201.232 396.84 202.192 397.8C203.152 398.747 203.632 399.927 203.632 401.34C203.632 402.753 203.152 403.94 202.192 404.9C201.232 405.847 200.046 406.32 198.632 406.32C197.219 406.32 196.032 405.847 195.072 404.9C194.112 403.94 193.632 402.753 193.632 401.34C193.632 399.927 194.112 398.747 195.072 397.8C196.032 396.84 197.219 396.36 198.632 396.36ZM198.632 398.08C197.739 398.08 196.979 398.4 196.352 399.04C195.739 399.68 195.432 400.447 195.432 401.34C195.432 402.233 195.746 403 196.372 403.64C196.999 404.28 197.752 404.6 198.632 404.6C199.512 404.6 200.266 404.28 200.892 403.64C201.519 403 201.832 402.233 201.832 401.34C201.832 400.447 201.519 399.68 200.892 399.04C200.279 398.4 199.526 398.08 198.632 398.08ZM208.073 396.64V397.9H208.113C208.687 396.873 209.627 396.36 210.933 396.36C213.147 396.36 214.253 397.713 214.253 400.42V406H212.453V400.64C212.453 399.733 212.34 399.093 212.113 398.72C211.807 398.213 211.233 397.96 210.393 397.96C209.38 397.96 208.707 398.373 208.373 399.2C208.173 399.707 208.073 400.54 208.073 401.7V406H206.273V396.64H208.073ZM222.962 398L221.502 398.78C221.235 398.233 220.835 397.96 220.302 397.96C220.049 397.96 219.822 398.053 219.622 398.24C219.422 398.413 219.322 398.627 219.322 398.88C219.322 399.32 219.695 399.72 220.442 400.08C221.709 400.693 222.409 401.047 222.542 401.14C223.289 401.673 223.662 402.367 223.662 403.22C223.662 404.1 223.349 404.84 222.722 405.44C222.095 406.027 221.335 406.32 220.442 406.32C219.749 406.32 219.095 406.133 218.482 405.76C217.869 405.373 217.442 404.86 217.202 404.22L218.742 403.52C219.182 404.32 219.749 404.72 220.442 404.72C220.829 404.72 221.162 404.6 221.442 404.36C221.722 404.107 221.862 403.787 221.862 403.4C221.862 403.013 221.642 402.673 221.202 402.38L219.442 401.44C218.815 401.107 218.382 400.807 218.142 400.54C217.809 400.167 217.642 399.68 217.642 399.08C217.642 398.32 217.909 397.68 218.442 397.16C218.989 396.627 219.642 396.36 220.402 396.36C221.575 396.36 222.429 396.907 222.962 398ZM234.638 401.62H227.498C227.511 402.46 227.778 403.187 228.298 403.8C228.818 404.413 229.491 404.72 230.318 404.72C231.451 404.72 232.384 404.113 233.118 402.9L234.638 403.76C234.198 404.56 233.591 405.187 232.818 405.64C232.058 406.093 231.218 406.32 230.298 406.32C228.898 406.32 227.771 405.847 226.918 404.9C226.104 403.993 225.698 402.827 225.698 401.4C225.698 399.893 226.078 398.693 226.838 397.8C227.638 396.84 228.778 396.36 230.258 396.36C231.684 396.36 232.791 396.84 233.578 397.8C234.284 398.693 234.638 399.873 234.638 401.34V401.62ZM227.598 400.26H232.838C232.731 399.54 232.451 398.973 231.998 398.56C231.558 398.133 230.978 397.92 230.258 397.92C229.564 397.92 228.971 398.14 228.478 398.58C227.998 399.007 227.704 399.567 227.598 400.26ZM244.063 396.98V399.3C243.33 398.46 242.437 398.04 241.383 398.04C240.503 398.04 239.763 398.367 239.163 399.02C238.563 399.673 238.263 400.44 238.263 401.32C238.263 402.28 238.563 403.073 239.163 403.7C239.763 404.327 240.543 404.64 241.503 404.64C242.477 404.64 243.33 404.227 244.063 403.4V405.7C243.29 406.113 242.43 406.32 241.483 406.32C240.083 406.32 238.897 405.847 237.923 404.9C236.95 403.953 236.463 402.787 236.463 401.4C236.463 399.947 236.95 398.747 237.923 397.8C238.91 396.84 240.13 396.36 241.583 396.36C242.53 396.36 243.357 396.567 244.063 396.98ZM249.071 398.32V406H247.271V398.32H246.291V396.64H247.271V393.06H249.071V396.64H250.831V398.32H249.071ZM261.036 401.62H253.896C253.91 402.46 254.176 403.187 254.696 403.8C255.216 404.413 255.89 404.72 256.716 404.72C257.85 404.72 258.783 404.113 259.516 402.9L261.036 403.76C260.596 404.56 259.99 405.187 259.216 405.64C258.456 406.093 257.616 406.32 256.696 406.32C255.296 406.32 254.17 405.847 253.316 404.9C252.503 403.993 252.096 402.827 252.096 401.4C252.096 399.893 252.476 398.693 253.236 397.8C254.036 396.84 255.176 396.36 256.656 396.36C258.083 396.36 259.19 396.84 259.976 397.8C260.683 398.693 261.036 399.873 261.036 401.34V401.62ZM253.996 400.26H259.236C259.13 399.54 258.85 398.973 258.396 398.56C257.956 398.133 257.376 397.92 256.656 397.92C255.963 397.92 255.37 398.14 254.876 398.58C254.396 399.007 254.103 399.567 253.996 400.26ZM265.642 398.32V406H263.842V398.32H262.862V396.64H263.842V393.06H265.642V396.64H267.402V398.32H265.642ZM269.306 396.64H271.106V401.82C271.106 403.7 271.826 404.64 273.266 404.64C274.706 404.64 275.426 403.7 275.426 401.82V396.64H277.226V402.02C277.226 403.367 276.906 404.407 276.266 405.14C275.586 405.927 274.586 406.32 273.266 406.32C271.946 406.32 270.946 405.927 270.266 405.14C269.626 404.407 269.306 403.367 269.306 402.02V396.64ZM282.541 396.64V398.16H282.601C283.081 396.96 283.934 396.36 285.161 396.36C285.668 396.36 286.161 396.513 286.641 396.82L285.821 398.46C285.528 398.207 285.161 398.08 284.721 398.08C283.268 398.08 282.541 399.187 282.541 401.4V406H280.741V396.64H282.541ZM103.415 432.72C104.361 432.72 105.115 432.387 105.675 431.72C106.195 431.08 106.455 430.28 106.455 429.32C106.455 428.36 106.188 427.573 105.655 426.96C105.095 426.293 104.348 425.96 103.415 425.96C102.508 425.96 101.788 426.293 101.255 426.96C100.721 427.613 100.455 428.4 100.455 429.32C100.455 430.267 100.708 431.053 101.215 431.68C101.761 432.373 102.495 432.72 103.415 432.72ZM108.155 424.64V434H106.355V432.54H106.315C105.515 433.727 104.455 434.32 103.135 434.32C101.748 434.32 100.641 433.813 99.8148 432.8C99.0414 431.867 98.6548 430.687 98.6548 429.26C98.6548 427.913 99.0481 426.773 99.8348 425.84C100.675 424.853 101.755 424.36 103.075 424.36C104.421 424.36 105.501 424.973 106.315 426.2H106.355V424.64H108.155ZM115.528 432.72C116.475 432.72 117.228 432.387 117.788 431.72C118.308 431.08 118.568 430.28 118.568 429.32C118.568 428.36 118.301 427.573 117.768 426.96C117.208 426.293 116.461 425.96 115.528 425.96C114.621 425.96 113.901 426.293 113.368 426.96C112.835 427.613 112.568 428.4 112.568 429.32C112.568 430.267 112.821 431.053 113.328 431.68C113.875 432.373 114.608 432.72 115.528 432.72ZM118.468 434V432.54H118.428C117.628 433.727 116.568 434.32 115.248 434.32C113.861 434.32 112.755 433.813 111.928 432.8C111.155 431.867 110.768 430.687 110.768 429.26C110.768 427.913 111.155 426.773 111.928 425.84C112.768 424.853 113.848 424.36 115.168 424.36C116.528 424.36 117.615 424.973 118.428 426.2H118.468V416.64H120.268V434H118.468ZM125.801 424.64V434H124.001V424.64H125.801ZM124.901 419.1C125.248 419.1 125.541 419.227 125.781 419.48C126.021 419.72 126.141 420.013 126.141 420.36C126.141 420.707 126.021 421 125.781 421.24C125.541 421.467 125.248 421.58 124.901 421.58C124.555 421.58 124.261 421.467 124.021 421.24C123.781 421 123.661 420.707 123.661 420.36C123.661 420.013 123.781 419.72 124.021 419.48C124.261 419.227 124.555 419.1 124.901 419.1ZM134.199 432.72C135.146 432.72 135.899 432.387 136.459 431.72C136.979 431.08 137.239 430.28 137.239 429.32C137.239 428.36 136.973 427.573 136.439 426.96C135.879 426.293 135.133 425.96 134.199 425.96C133.293 425.96 132.573 426.293 132.039 426.96C131.506 427.613 131.239 428.4 131.239 429.32C131.239 430.267 131.493 431.053 131.999 431.68C132.546 432.373 133.279 432.72 134.199 432.72ZM131.339 424.64V426.2H131.379C132.193 424.973 133.279 424.36 134.639 424.36C135.959 424.36 137.039 424.853 137.879 425.84C138.653 426.773 139.039 427.913 139.039 429.26C139.039 430.687 138.653 431.867 137.879 432.8C137.053 433.813 135.946 434.32 134.559 434.32C133.239 434.32 132.179 433.727 131.379 432.54H131.339V439.36H129.539V424.64H131.339ZM143.993 424.64V434H142.193V424.64H143.993ZM143.093 419.1C143.439 419.1 143.733 419.227 143.973 419.48C144.213 419.72 144.333 420.013 144.333 420.36C144.333 420.707 144.213 421 143.973 421.24C143.733 421.467 143.439 421.58 143.093 421.58C142.746 421.58 142.453 421.467 142.213 421.24C141.973 421 141.853 420.707 141.853 420.36C141.853 420.013 141.973 419.72 142.213 419.48C142.453 419.227 142.746 419.1 143.093 419.1ZM153.091 426L151.631 426.78C151.364 426.233 150.964 425.96 150.431 425.96C150.178 425.96 149.951 426.053 149.751 426.24C149.551 426.413 149.451 426.627 149.451 426.88C149.451 427.32 149.824 427.72 150.571 428.08C151.838 428.693 152.538 429.047 152.671 429.14C153.418 429.673 153.791 430.367 153.791 431.22C153.791 432.1 153.478 432.84 152.851 433.44C152.224 434.027 151.464 434.32 150.571 434.32C149.878 434.32 149.224 434.133 148.611 433.76C147.998 433.373 147.571 432.86 147.331 432.22L148.871 431.52C149.311 432.32 149.878 432.72 150.571 432.72C150.958 432.72 151.291 432.6 151.571 432.36C151.851 432.107 151.991 431.787 151.991 431.4C151.991 431.013 151.771 430.673 151.331 430.38L149.571 429.44C148.944 429.107 148.511 428.807 148.271 428.54C147.938 428.167 147.771 427.68 147.771 427.08C147.771 426.32 148.038 425.68 148.571 425.16C149.118 424.627 149.771 424.36 150.531 424.36C151.704 424.36 152.558 424.907 153.091 426ZM163.427 424.98V427.3C162.693 426.46 161.8 426.04 160.747 426.04C159.867 426.04 159.127 426.367 158.527 427.02C157.927 427.673 157.627 428.44 157.627 429.32C157.627 430.28 157.927 431.073 158.527 431.7C159.127 432.327 159.907 432.64 160.867 432.64C161.84 432.64 162.693 432.227 163.427 431.4V433.7C162.653 434.113 161.793 434.32 160.847 434.32C159.447 434.32 158.26 433.847 157.287 432.9C156.313 431.953 155.827 430.787 155.827 429.4C155.827 427.947 156.313 426.747 157.287 425.8C158.273 424.84 159.493 424.36 160.947 424.36C161.893 424.36 162.72 424.567 163.427 424.98ZM168.575 424.64V434H166.775V424.64H168.575ZM167.675 419.1C168.021 419.1 168.315 419.227 168.555 419.48C168.795 419.72 168.915 420.013 168.915 420.36C168.915 420.707 168.795 421 168.555 421.24C168.315 421.467 168.021 421.58 167.675 421.58C167.328 421.58 167.035 421.467 166.795 421.24C166.555 421 166.435 420.707 166.435 420.36C166.435 420.013 166.555 419.72 166.795 419.48C167.035 419.227 167.328 419.1 167.675 419.1ZM174.253 424.64V425.9H174.293C174.866 424.873 175.806 424.36 177.113 424.36C179.326 424.36 180.433 425.713 180.433 428.42V434H178.633V428.64C178.633 427.733 178.52 427.093 178.293 426.72C177.986 426.213 177.413 425.96 176.573 425.96C175.56 425.96 174.886 426.373 174.553 427.2C174.353 427.707 174.253 428.54 174.253 429.7V434H172.453V424.64H174.253ZM187.942 432.72C188.888 432.72 189.642 432.387 190.202 431.72C190.722 431.08 190.982 430.28 190.982 429.32C190.982 428.36 190.715 427.573 190.182 426.96C189.622 426.293 188.875 425.96 187.942 425.96C187.035 425.96 186.315 426.293 185.782 426.96C185.248 427.613 184.982 428.4 184.982 429.32C184.982 430.267 185.235 431.053 185.742 431.68C186.288 432.373 187.022 432.72 187.942 432.72ZM192.682 424.64V433.82C192.682 435.593 192.375 436.92 191.762 437.8C191.028 438.84 189.815 439.36 188.122 439.36C186.802 439.36 185.722 438.98 184.882 438.22C184.042 437.46 183.615 436.427 183.602 435.12H185.402C185.402 435.947 185.655 436.593 186.162 437.06C186.682 437.527 187.362 437.76 188.202 437.76C189.228 437.76 189.955 437.427 190.382 436.76C190.715 436.227 190.882 435.413 190.882 434.32V432.54H190.842C190.042 433.727 188.982 434.32 187.662 434.32C186.275 434.32 185.168 433.813 184.342 432.8C183.568 431.867 183.182 430.687 183.182 429.26C183.182 427.913 183.568 426.773 184.342 425.84C185.182 424.853 186.262 424.36 187.582 424.36C188.955 424.36 190.042 424.987 190.842 426.24H190.882V424.64H192.682ZM211.017 429.62H203.877C203.89 430.46 204.157 431.187 204.677 431.8C205.197 432.413 205.87 432.72 206.697 432.72C207.83 432.72 208.763 432.113 209.497 430.9L211.017 431.76C210.577 432.56 209.97 433.187 209.197 433.64C208.437 434.093 207.597 434.32 206.677 434.32C205.277 434.32 204.15 433.847 203.297 432.9C202.483 431.993 202.077 430.827 202.077 429.4C202.077 427.893 202.457 426.693 203.217 425.8C204.017 424.84 205.157 424.36 206.637 424.36C208.063 424.36 209.17 424.84 209.957 425.8C210.663 426.693 211.017 427.873 211.017 429.34V429.62ZM203.977 428.26H209.217C209.11 427.54 208.83 426.973 208.377 426.56C207.937 426.133 207.357 425.92 206.637 425.92C205.943 425.92 205.35 426.14 204.857 426.58C204.377 427.007 204.083 427.567 203.977 428.26ZM215.442 416.64V434H213.642V416.64H215.442ZM221.196 424.64V434H219.396V424.64H221.196ZM220.296 419.1C220.643 419.1 220.936 419.227 221.176 419.48C221.416 419.72 221.536 420.013 221.536 420.36C221.536 420.707 221.416 421 221.176 421.24C220.936 421.467 220.643 421.58 220.296 421.58C219.949 421.58 219.656 421.467 219.416 421.24C219.176 421 219.056 420.707 219.056 420.36C219.056 420.013 219.176 419.72 219.416 419.48C219.656 419.227 219.949 419.1 220.296 419.1ZM227.134 426.32V434H225.334V426.32H224.354V424.64H225.334V421.06H227.134V424.64H228.894V426.32H227.134ZM232.539 432C232.859 432 233.132 432.113 233.359 432.34C233.585 432.567 233.699 432.84 233.699 433.16C233.699 433.48 233.585 433.753 233.359 433.98C233.132 434.207 232.859 434.32 232.539 434.32C232.219 434.32 231.945 434.207 231.719 433.98C231.492 433.753 231.379 433.48 231.379 433.16C231.379 432.84 231.492 432.567 231.719 432.34C231.945 432.113 232.219 432 232.539 432ZM259.361 434.32H257.081L255.781 432.98C254.488 433.873 253.055 434.32 251.481 434.32C249.255 434.32 247.381 433.567 245.861 432.06C244.341 430.553 243.581 428.687 243.581 426.46C243.581 424.287 244.355 422.433 245.901 420.9C247.448 419.367 249.308 418.6 251.481 418.6C253.655 418.6 255.515 419.367 257.061 420.9C258.608 422.433 259.381 424.287 259.381 426.46C259.381 428.673 258.595 430.527 257.021 432.02L259.361 434.32ZM253.361 428.32L255.741 430.68C256.301 430.187 256.735 429.553 257.041 428.78C257.348 428.007 257.501 427.233 257.501 426.46C257.501 424.727 256.928 423.28 255.781 422.12C254.648 420.947 253.215 420.36 251.481 420.36C249.761 420.36 248.328 420.947 247.181 422.12C246.035 423.293 245.461 424.74 245.461 426.46C245.461 428.14 246.041 429.58 247.201 430.78C248.375 431.967 249.801 432.56 251.481 432.56C252.575 432.56 253.575 432.273 254.481 431.7L251.021 428.32H253.361ZM261.924 424.64H263.724V429.82C263.724 431.7 264.444 432.64 265.884 432.64C267.324 432.64 268.044 431.7 268.044 429.82V424.64H269.844V430.02C269.844 431.367 269.524 432.407 268.884 433.14C268.204 433.927 267.204 434.32 265.884 434.32C264.564 434.32 263.564 433.927 262.884 433.14C262.244 432.407 261.924 431.367 261.924 430.02V424.64ZM275.438 424.64V434H273.638V424.64H275.438ZM274.538 419.1C274.885 419.1 275.178 419.227 275.418 419.48C275.658 419.72 275.778 420.013 275.778 420.36C275.778 420.707 275.658 421 275.418 421.24C275.178 421.467 274.885 421.58 274.538 421.58C274.191 421.58 273.898 421.467 273.658 421.24C273.418 421 273.298 420.707 273.298 420.36C273.298 420.013 273.418 419.72 273.658 419.48C273.898 419.227 274.191 419.1 274.538 419.1ZM284.536 426L283.076 426.78C282.81 426.233 282.41 425.96 281.876 425.96C281.623 425.96 281.396 426.053 281.196 426.24C280.996 426.413 280.896 426.627 280.896 426.88C280.896 427.32 281.27 427.72 282.016 428.08C283.283 428.693 283.983 429.047 284.116 429.14C284.863 429.673 285.236 430.367 285.236 431.22C285.236 432.1 284.923 432.84 284.296 433.44C283.67 434.027 282.91 434.32 282.016 434.32C281.323 434.32 280.67 434.133 280.056 433.76C279.443 433.373 279.016 432.86 278.776 432.22L280.316 431.52C280.756 432.32 281.323 432.72 282.016 432.72C282.403 432.72 282.736 432.6 283.016 432.36C283.296 432.107 283.436 431.787 283.436 431.4C283.436 431.013 283.216 430.673 282.776 430.38L281.016 429.44C280.39 429.107 279.956 428.807 279.716 428.54C279.383 428.167 279.216 427.68 279.216 427.08C279.216 426.32 279.483 425.68 280.016 425.16C280.563 424.627 281.216 424.36 281.976 424.36C283.15 424.36 284.003 424.907 284.536 426ZM292.032 432.72C292.979 432.72 293.732 432.387 294.292 431.72C294.812 431.08 295.072 430.28 295.072 429.32C295.072 428.36 294.805 427.573 294.272 426.96C293.712 426.293 292.965 425.96 292.032 425.96C291.125 425.96 290.405 426.293 289.872 426.96C289.339 427.613 289.072 428.4 289.072 429.32C289.072 430.267 289.325 431.053 289.832 431.68C290.379 432.373 291.112 432.72 292.032 432.72ZM296.772 424.64V439.36H294.972V432.54H294.932C294.132 433.727 293.072 434.32 291.752 434.32C290.365 434.32 289.259 433.813 288.432 432.8C287.659 431.867 287.272 430.687 287.272 429.26C287.272 427.913 287.659 426.773 288.432 425.84C289.272 424.853 290.352 424.36 291.672 424.36C293.032 424.36 294.119 424.973 294.932 426.2H294.972V424.64H296.772ZM300.025 424.64H301.825V429.82C301.825 431.7 302.545 432.64 303.985 432.64C305.425 432.64 306.145 431.7 306.145 429.82V424.64H307.945V430.02C307.945 431.367 307.625 432.407 306.985 433.14C306.305 433.927 305.305 434.32 303.985 434.32C302.665 434.32 301.665 433.927 300.985 433.14C300.345 432.407 300.025 431.367 300.025 430.02V424.64ZM319.56 429.62H312.42C312.433 430.46 312.7 431.187 313.22 431.8C313.74 432.413 314.413 432.72 315.24 432.72C316.373 432.72 317.306 432.113 318.04 430.9L319.56 431.76C319.12 432.56 318.513 433.187 317.74 433.64C316.98 434.093 316.14 434.32 315.22 434.32C313.82 434.32 312.693 433.847 311.84 432.9C311.026 431.993 310.62 430.827 310.62 429.4C310.62 427.893 311 426.693 311.76 425.8C312.56 424.84 313.7 424.36 315.18 424.36C316.606 424.36 317.713 424.84 318.5 425.8C319.206 426.693 319.56 427.873 319.56 429.34V429.62ZM312.52 428.26H317.76C317.653 427.54 317.373 426.973 316.92 426.56C316.48 426.133 315.9 425.92 315.18 425.92C314.486 425.92 313.893 426.14 313.4 426.58C312.92 427.007 312.626 427.567 312.52 428.26ZM186.942 444.64V446.46C186.369 446.207 185.969 446.08 185.743 446.08C185.183 446.08 184.809 446.387 184.623 447C184.516 447.347 184.463 447.887 184.463 448.62V452.64H186.942V454.32H184.463V462H182.663V454.32H181.843V452.64H182.663V448.08C182.663 445.627 183.669 444.4 185.683 444.4C186.123 444.4 186.542 444.48 186.942 444.64ZM192.85 460.72C193.797 460.72 194.55 460.387 195.11 459.72C195.63 459.08 195.89 458.28 195.89 457.32C195.89 456.36 195.624 455.573 195.09 454.96C194.53 454.293 193.784 453.96 192.85 453.96C191.944 453.96 191.224 454.293 190.69 454.96C190.157 455.613 189.89 456.4 189.89 457.32C189.89 458.267 190.144 459.053 190.65 459.68C191.197 460.373 191.93 460.72 192.85 460.72ZM197.59 452.64V462H195.79V460.54H195.75C194.95 461.727 193.89 462.32 192.57 462.32C191.184 462.32 190.077 461.813 189.25 460.8C188.477 459.867 188.09 458.687 188.09 457.26C188.09 455.913 188.484 454.773 189.27 453.84C190.11 452.853 191.19 452.36 192.51 452.36C193.857 452.36 194.937 452.973 195.75 454.2H195.79V452.64H197.59ZM200.844 452.64H202.644V457.82C202.644 459.7 203.364 460.64 204.804 460.64C206.244 460.64 206.964 459.7 206.964 457.82V452.64H208.764V458.02C208.764 459.367 208.444 460.407 207.804 461.14C207.124 461.927 206.124 462.32 204.804 462.32C203.484 462.32 202.484 461.927 201.804 461.14C201.164 460.407 200.844 459.367 200.844 458.02V452.64ZM219.038 452.98V455.3C218.305 454.46 217.411 454.04 216.358 454.04C215.478 454.04 214.738 454.367 214.138 455.02C213.538 455.673 213.238 456.44 213.238 457.32C213.238 458.28 213.538 459.073 214.138 459.7C214.738 460.327 215.518 460.64 216.478 460.64C217.451 460.64 218.305 460.227 219.038 459.4V461.7C218.265 462.113 217.405 462.32 216.458 462.32C215.058 462.32 213.871 461.847 212.898 460.9C211.925 459.953 211.438 458.787 211.438 457.4C211.438 455.947 211.925 454.747 212.898 453.8C213.885 452.84 215.105 452.36 216.558 452.36C217.505 452.36 218.331 452.567 219.038 452.98ZM224.186 452.64V462H222.386V452.64H224.186ZM223.286 447.1C223.633 447.1 223.926 447.227 224.166 447.48C224.406 447.72 224.526 448.013 224.526 448.36C224.526 448.707 224.406 449 224.166 449.24C223.926 449.467 223.633 449.58 223.286 449.58C222.939 449.58 222.646 449.467 222.406 449.24C222.166 449 222.046 448.707 222.046 448.36C222.046 448.013 222.166 447.72 222.406 447.48C222.646 447.227 222.939 447.1 223.286 447.1ZM232.584 460.72C233.531 460.72 234.284 460.387 234.844 459.72C235.364 459.08 235.624 458.28 235.624 457.32C235.624 456.36 235.358 455.573 234.824 454.96C234.264 454.293 233.518 453.96 232.584 453.96C231.678 453.96 230.958 454.293 230.424 454.96C229.891 455.613 229.624 456.4 229.624 457.32C229.624 458.267 229.878 459.053 230.384 459.68C230.931 460.373 231.664 460.72 232.584 460.72ZM227.924 462V444.64H229.724V454.2H229.764C230.578 452.973 231.664 452.36 233.024 452.36C234.344 452.36 235.424 452.853 236.264 453.84C237.038 454.773 237.424 455.913 237.424 457.26C237.424 458.687 237.038 459.867 236.264 460.8C235.438 461.813 234.331 462.32 232.944 462.32C231.624 462.32 230.564 461.727 229.764 460.54H229.724V462H227.924Z" fill="black"/>
<path d="M162.344 311.188V330H156.078V311.188H150.891V305.875H167.531V311.188H162.344ZM183.547 311.188H176.078V315.219H183.156V320.531H176.078V324.688H183.547V330H169.812V305.875H183.547V311.188ZM171.484 302.797L176.688 298.859L182 302.797L180.156 304.344L176.688 301.688L173.234 304.344L171.484 302.797ZM187.406 330V305.875H193.672L205.172 320.625H205.234V305.875H211.5V330H205.234L193.75 315.219H193.672V330H187.406ZM232.828 311.188V315.188H236.359V320.109H232.828V324.688H234.25C236.385 324.688 238.073 324.094 239.312 322.906C240.562 321.719 241.188 320.062 241.188 317.938C241.188 315.844 240.568 314.198 239.328 313C238.089 311.792 236.417 311.188 234.312 311.188H232.828ZM226.562 330V320.109H223.875V315.188H226.562V305.875H235.453C238.88 305.875 241.781 307.031 244.156 309.344C246.531 311.656 247.719 314.521 247.719 317.938C247.719 321.354 246.531 324.219 244.156 326.531C241.781 328.844 238.88 330 235.453 330H226.562ZM266.375 307.219L263.875 312.078C262.594 311.016 261.208 310.484 259.719 310.484C259.052 310.484 258.458 310.651 257.938 310.984C257.333 311.359 257.031 311.865 257.031 312.5C257.031 313.469 257.958 314.234 259.812 314.797L261.406 315.281C263.312 315.865 264.724 316.599 265.641 317.484C266.786 318.599 267.359 320.062 267.359 321.875C267.359 324.719 266.505 326.906 264.797 328.438C263.161 329.906 260.901 330.641 258.016 330.641C254.984 330.641 252.156 329.724 249.531 327.891L252.219 322.828C254.125 324.495 255.984 325.328 257.797 325.328C258.62 325.328 259.312 325.135 259.875 324.75C260.51 324.302 260.828 323.682 260.828 322.891C260.828 322.13 260.365 321.5 259.438 321C258.969 320.75 258.167 320.464 257.031 320.141C254.698 319.474 253.115 318.781 252.281 318.062C251.094 317.042 250.5 315.464 250.5 313.328C250.5 310.88 251.271 308.922 252.812 307.453C254.354 305.974 256.354 305.234 258.812 305.234C261.521 305.234 264.042 305.896 266.375 307.219Z" fill="black"/>
<rect x="67" y="484" width="286" height="51" rx="25.5" fill="#C9A781"/>
<circle cx="99" cy="509" r="19" fill="white"/>
<path d="M105.25 498.25H101.875C100.383 498.25 98.9524 498.843 97.8975 499.898C96.8426 500.952 96.25 502.383 96.25 503.875V507.25H92.875V511.75H96.25V520.75H100.75V511.75H104.125L105.25 507.25H100.75V503.875C100.75 503.577 100.869 503.29 101.08 503.08C101.29 502.869 101.577 502.75 101.875 502.75H105.25V498.25Z" stroke="black" stroke-width="2.5" stroke-linecap="round" stroke-linejoin="round"/>
<path d="M163.546 499.826L161.332 504.129C160.198 503.189 158.971 502.718 157.652 502.718C157.061 502.718 156.535 502.866 156.074 503.161C155.539 503.493 155.272 503.94 155.272 504.503C155.272 505.361 156.093 506.039 157.735 506.537L159.146 506.966C160.834 507.482 162.084 508.133 162.896 508.917C163.91 509.904 164.418 511.2 164.418 512.805C164.418 515.323 163.661 517.26 162.149 518.616C160.7 519.917 158.699 520.567 156.143 520.567C153.459 520.567 150.955 519.756 148.63 518.132L151.01 513.649C152.698 515.125 154.345 515.863 155.95 515.863C156.678 515.863 157.292 515.692 157.79 515.351C158.353 514.954 158.634 514.405 158.634 513.704C158.634 513.031 158.224 512.473 157.403 512.03C156.987 511.809 156.277 511.555 155.272 511.269C153.205 510.679 151.803 510.065 151.065 509.429C150.014 508.525 149.488 507.127 149.488 505.236C149.488 503.069 150.171 501.334 151.536 500.034C152.901 498.724 154.672 498.069 156.849 498.069C159.247 498.069 161.48 498.655 163.546 499.826ZM174.629 504.987C177.083 504.987 179.126 505.656 180.759 506.994C182.511 508.433 183.388 510.351 183.388 512.75C183.388 515.139 182.507 517.053 180.745 518.492C179.112 519.82 177.074 520.484 174.629 520.484C172.185 520.484 170.146 519.82 168.513 518.492C166.752 517.062 165.871 515.148 165.871 512.75C165.871 510.351 166.747 508.433 168.5 506.994C170.132 505.656 172.175 504.987 174.629 504.987ZM174.629 509.457C173.651 509.457 172.853 509.766 172.235 510.384C171.617 510.992 171.308 511.781 171.308 512.75C171.308 513.737 171.613 514.525 172.222 515.116C172.84 515.706 173.642 516.001 174.629 516.001C175.616 516.001 176.414 515.706 177.023 515.116C177.641 514.525 177.95 513.737 177.95 512.75C177.95 511.781 177.641 510.992 177.023 510.384C176.405 509.766 175.607 509.457 174.629 509.457ZM196.2 505.831V510.19C195.278 509.516 194.388 509.18 193.53 509.18C192.524 509.18 191.68 509.521 190.998 510.204C190.324 510.877 189.988 511.716 189.988 512.722C189.988 513.774 190.324 514.631 190.998 515.296C191.68 515.96 192.552 516.292 193.613 516.292C194.609 516.292 195.472 515.96 196.2 515.296V519.654C195.103 520.208 193.89 520.484 192.561 520.484C190.375 520.484 188.521 519.769 186.999 518.34C185.44 516.882 184.661 515.065 184.661 512.888C184.661 510.573 185.436 508.677 186.985 507.201C188.535 505.725 190.472 504.987 192.797 504.987C194.042 504.987 195.176 505.269 196.2 505.831ZM204.572 505.458V520H199.41V505.458H204.572ZM201.984 496.99C202.787 496.99 203.469 497.271 204.032 497.834C204.595 498.396 204.876 499.079 204.876 499.882C204.876 500.684 204.595 501.367 204.032 501.929C203.469 502.492 202.787 502.773 201.984 502.773C201.182 502.773 200.499 502.492 199.936 501.929C199.374 501.367 199.092 500.684 199.092 499.882C199.092 499.079 199.374 498.396 199.936 497.834C200.499 497.271 201.182 496.99 201.984 496.99ZM215.558 509.457C214.58 509.457 213.782 509.766 213.164 510.384C212.546 510.992 212.237 511.781 212.237 512.75C212.237 513.737 212.541 514.525 213.15 515.116C213.768 515.706 214.571 516.001 215.558 516.001C216.545 516.001 217.343 515.706 217.952 515.116C218.56 514.516 218.865 513.727 218.865 512.75C218.865 511.781 218.556 510.992 217.938 510.384C217.32 509.766 216.526 509.457 215.558 509.457ZM223.86 505.458V520H218.699V518.381H218.643C217.767 519.783 216.305 520.484 214.257 520.484C212.136 520.484 210.369 519.714 208.958 518.174C207.593 516.679 206.91 514.862 206.91 512.722C206.91 510.582 207.583 508.769 208.93 507.284C210.314 505.753 212.066 504.987 214.188 504.987C216.125 504.987 217.629 505.619 218.699 506.883V505.458H223.86ZM232.466 496.478V520H227.305V496.478H232.466ZM250.73 496.478V520H245.569V496.478H250.73ZM259.281 505.458V520H254.12V505.458H259.281ZM256.694 496.99C257.497 496.99 258.179 497.271 258.742 497.834C259.305 498.396 259.586 499.079 259.586 499.882C259.586 500.684 259.305 501.367 258.742 501.929C258.179 502.492 257.497 502.773 256.694 502.773C255.891 502.773 255.209 502.492 254.646 501.929C254.083 501.367 253.802 500.684 253.802 499.882C253.802 499.079 254.083 498.396 254.646 497.834C255.209 497.271 255.891 496.99 256.694 496.99ZM267.832 505.458V507.34H267.888C268.949 505.771 270.498 504.987 272.537 504.987C276.181 504.987 278.002 506.998 278.002 511.02V520H272.841V512.916C272.841 511.707 272.772 510.896 272.634 510.48C272.329 509.558 271.624 509.097 270.517 509.097C268.727 509.097 267.832 510.218 267.832 512.459V520H262.671V505.458H267.832ZM286.567 496.478V510.702L291.922 505.458H298.979L291.687 512.182L299.421 520H292.199L286.567 514.078V520H281.406V496.478H286.567Z" fill="black"/>
</svg>
